<svg width="163" height="58" viewBox="0 0 163 58" fill="none" xmlns="http://www.w3.org/2000/svg">
<path d="M65.757 40L74.181 21.1H78.501L86.952 40H82.362L75.45 23.314H77.178L70.239 40H65.757ZM69.969 35.95L71.13 32.629H80.85L82.038 35.95H69.969ZM88.9129 40V21.1H93.2869V36.436H102.764V40H88.9129ZM105.208 40V21.1H113.389C115.081 21.1 116.539 21.379 117.763 21.937C118.987 22.477 119.932 23.26 120.598 24.286C121.264 25.312 121.597 26.536 121.597 27.958C121.597 29.362 121.264 30.577 120.598 31.603C119.932 32.629 118.987 33.421 117.763 33.979C116.539 34.519 115.081 34.789 113.389 34.789H107.638L109.582 32.818V40H105.208ZM109.582 33.304L107.638 31.225H113.146C114.496 31.225 115.504 30.937 116.17 30.361C116.836 29.785 117.169 28.984 117.169 27.958C117.169 26.914 116.836 26.104 116.17 25.528C115.504 24.952 114.496 24.664 113.146 24.664H107.638L109.582 22.585V33.304ZM128.743 28.714H137.842V32.116H128.743V28.714ZM129.067 36.49H139.354V40H124.72V21.1H139.003V24.61H129.067V36.49ZM142.834 40V21.1H146.452L157.603 34.708H155.848V21.1H160.168V40H156.577L145.399 26.392H147.154V40H142.834Z" fill="#D2D7DA"/>
<path fill-rule="evenodd" clip-rule="evenodd" d="M56.3848 45.0624H46.4843L44.7549 38.6771H35.2359L33.4783 45.0624H23.78L34.2956 13.9533H40.7406C42.4208 13.9235 46.124 14.8497 47.5072 18.7867L56.3848 45.0624ZM30.3726 13.9533L19.945 45.0624H0.140594C1.93684 35.7473 7.31853 17.6741 30.3726 13.9533ZM40.0393 21.1014L36.9636 32.4079H43.1151L40.0393 21.1014Z" fill="#D2D7DA"/>
</svg>
