<svg width="152" height="58" viewBox="0 0 152 58" fill="none" xmlns="http://www.w3.org/2000/svg">
<path d="M61.775 38L69.575 20.5H73.575L81.4 38H77.15L70.75 22.55H72.35L65.925 38H61.775ZM65.675 34.25L66.75 31.175H75.75L76.85 34.25H65.675ZM83.2156 38V20.5H87.2656V34.7H96.0406V38H83.2156ZM98.3035 38V20.5H105.879C107.445 20.5 108.795 20.7583 109.929 21.275C111.062 21.775 111.937 22.5 112.554 23.45C113.17 24.4 113.479 25.5333 113.479 26.85C113.479 28.15 113.17 29.275 112.554 30.225C111.937 31.175 111.062 31.9083 109.929 32.425C108.795 32.925 107.445 33.175 105.879 33.175H100.554L102.354 31.35V38H98.3035ZM102.354 31.8L100.554 29.875H105.654C106.904 29.875 107.837 29.6083 108.454 29.075C109.07 28.5417 109.379 27.8 109.379 26.85C109.379 25.8833 109.07 25.1333 108.454 24.6C107.837 24.0667 106.904 23.8 105.654 23.8H100.554L102.354 21.875V31.8ZM120.095 27.55H128.52V30.7H120.095V27.55ZM120.395 34.75H129.92V38H116.37V20.5H129.595V23.75H120.395V34.75ZM133.142 38V20.5H136.492L146.817 33.1H145.192V20.5H149.192V38H145.867L135.517 25.4H137.142V38H133.142Z" fill="#48586D"/>
<path fill-rule="evenodd" clip-rule="evenodd" d="M56.3848 45.0625H46.4844L44.7549 38.6772H35.2359L33.4783 45.0625H23.78L34.2956 13.9534H40.7406C42.4209 13.9235 46.1241 14.8498 47.5073 18.7867L56.3848 45.0625ZM30.3727 13.9534L19.945 45.0625H0.140625C1.93687 35.7473 7.31856 17.6742 30.3727 13.9534ZM40.0393 21.1014L36.9636 32.4079H43.1151L40.0393 21.1014Z" fill="url(#paint0_linear_2002_84)"/>
<defs>
<linearGradient id="paint0_linear_2002_84" x1="28.2583" y1="45.3384" x2="28.2583" y2="-8.27993" gradientUnits="userSpaceOnUse">
<stop stop-color="#48586D"/>
<stop offset="1" stop-color="#9BBBC6"/>
</linearGradient>
</defs>
</svg>
