<svg width="67" height="67" viewBox="0 0 67 67" fill="none" xmlns="http://www.w3.org/2000/svg">
<path d="M53.0417 39.0834V50.25H47.4583V39.0834H53.0417ZM19.5417 39.0834V50.25H16.75C15.2146 50.25 13.9583 48.9938 13.9583 47.4584V39.0834H19.5417ZM33.5 2.79169C19.6254 2.79169 8.375 14.0421 8.375 27.9167V47.4584C8.375 52.0925 12.1158 55.8334 16.75 55.8334H25.125V33.5H13.9583V27.9167C13.9583 17.1129 22.6963 8.37502 33.5 8.37502C44.3038 8.37502 53.0417 17.1129 53.0417 27.9167V33.5H41.875V55.8334H53.0417V58.625H33.5V64.2084H50.25C54.8842 64.2084 58.625 60.4675 58.625 55.8334V27.9167C58.625 14.0421 47.3746 2.79169 33.5 2.79169Z" fill="#48586D"/>
</svg>
