<svg width="67" height="68" viewBox="0 0 67 68" fill="none" xmlns="http://www.w3.org/2000/svg">
<path d="M57.2292 8.875L56.7825 8.95875L41.875 14.7375L25.125 8.875L9.38 14.1792C8.79375 14.3746 8.375 14.8771 8.375 15.5192V57.7292C8.375 58.5108 8.98917 59.125 9.77083 59.125L10.2175 59.0412L25.125 53.2625L41.875 59.125L57.62 53.8208C58.2062 53.6254 58.625 53.1229 58.625 52.4808V10.2708C58.625 9.48917 58.0108 8.875 57.2292 8.875ZM27.9167 15.7704L39.0833 19.6788V52.2296L27.9167 48.3212V15.7704ZM13.9583 18.5342L22.3333 15.7146V48.3771L13.9583 51.6154V18.5342ZM53.0417 49.4658L44.6667 52.2854V19.6508L53.0417 16.4125V49.4658Z" fill="#677283"/>
</svg>
