<svg width="67" height="67" viewBox="0 0 67 67" fill="none" xmlns="http://www.w3.org/2000/svg">
<path d="M25.125 61.4167H50.25C52.5671 61.4167 54.5492 60.0208 55.3867 58.0108L63.8175 38.3296C64.0687 37.6875 64.2083 37.0175 64.2083 36.2917V30.7083C64.2083 27.6375 61.6958 25.125 58.625 25.125H41.0096L43.6617 12.3671L43.7454 11.4738C43.7454 10.3292 43.2708 9.26834 42.5171 8.51459L39.5579 5.58334L21.1608 23.9804C20.1558 24.9854 19.5417 26.3813 19.5417 27.9167V55.8333C19.5417 58.9042 22.0542 61.4167 25.125 61.4167ZM25.125 27.9167L37.2408 15.8008L33.5 30.7083H58.625V36.2917L50.25 55.8333H25.125V27.9167ZM2.79166 27.9167H13.9583V61.4167H2.79166V27.9167Z" fill="#677283"/>
</svg>
