<svg width="67" height="67" viewBox="0 0 67 67" fill="none" xmlns="http://www.w3.org/2000/svg">
<path d="M64.2084 33.4721L57.3967 25.6833L58.3459 15.3821L48.2679 13.0929L42.9917 4.1875L33.5 8.26333L24.0084 4.1875L18.7321 13.0929L8.65419 15.3542L9.60335 25.6833L2.79169 33.4721L9.60335 41.2608L8.65419 51.59L18.7321 53.8792L24.0084 62.8125L33.5 58.7088L42.9917 62.7846L48.2679 53.8792L58.3459 51.59L57.3967 41.2887L64.2084 33.4721ZM53.1813 37.6038L51.6179 39.4183L51.8413 41.7913L52.3438 47.235L44.6946 48.9658L43.4663 51.0317L40.7025 55.7217L35.7334 53.5721L33.5 52.6229L31.2946 53.5721L26.3254 55.7217L23.5617 51.0596L22.3334 48.9937L14.6842 47.2629L15.1867 41.7913L15.41 39.4183L13.8467 37.6038L10.2454 33.5L13.8467 29.3683L15.41 27.5538L15.1588 25.1529L14.6563 19.7371L22.3054 18.0062L23.5338 15.9404L26.2975 11.2504L31.2667 13.4L33.5 14.3492L35.7054 13.4L40.6746 11.2504L43.4384 15.9404L44.6667 18.0062L52.3159 19.7371L51.8134 25.1808L51.59 27.5538L53.1534 29.3683L56.7546 33.4721L53.1813 37.6038Z" fill="#48586D"/>
<path d="M28.1679 38.3854L21.6913 31.8808L17.5596 36.0404L28.1679 46.6767L48.6588 26.13L44.5271 21.9704L28.1679 38.3854Z" fill="#48586D"/>
</svg>
