<svg width="181" height="181" viewBox="0 0 181 181" fill="none" xmlns="http://www.w3.org/2000/svg">
<path d="M179.847 110.99C179.847 111.665 179.714 112.333 179.455 112.957C179.197 113.581 178.818 114.147 178.34 114.624C177.862 115.102 177.295 115.48 176.671 115.738C176.047 115.996 175.378 116.128 174.703 116.127H6.34547C4.98093 116.129 3.67169 115.588 2.70568 114.625C1.73967 113.661 1.19599 112.354 1.19421 110.99V70.0171C1.19599 68.6523 1.73945 67.344 2.70527 66.3794C3.67109 65.4149 4.98031 64.8729 6.34547 64.8726H174.701C175.377 64.8726 176.046 65.0056 176.67 65.2642C177.295 65.5227 177.862 65.9017 178.339 66.3794C178.817 66.8572 179.196 67.4243 179.455 68.0485C179.713 68.6726 179.846 69.3416 179.846 70.0171L179.847 110.99Z" fill="white"/>
<path d="M179.847 110.99C179.847 111.665 179.714 112.333 179.455 112.957C179.197 113.581 178.818 114.147 178.34 114.624C177.862 115.102 177.295 115.48 176.671 115.738C176.047 115.996 175.378 116.128 174.703 116.127H6.34547C4.98093 116.129 3.67169 115.588 2.70568 114.625C1.73967 113.661 1.19599 112.354 1.19421 110.99V70.0171C1.19599 68.6523 1.73945 67.344 2.70527 66.3794C3.67109 65.4149 4.98031 64.8729 6.34547 64.8726H174.701C175.377 64.8726 176.046 65.0056 176.67 65.2642C177.295 65.5227 177.862 65.9017 178.339 66.3794C178.817 66.8572 179.196 67.4243 179.455 68.0485C179.713 68.6726 179.846 69.3416 179.846 70.0171L179.847 110.99Z" fill="black"/>
<path d="M40.4264 90.2182C40.3875 85.8947 43.9675 83.7913 44.1312 83.6933C42.1037 80.7381 38.9612 80.3343 37.8568 80.3021C35.2175 80.0244 32.6573 81.881 31.3128 81.881C29.9414 81.881 27.871 80.3289 25.6395 80.3746C22.768 80.4188 20.0817 82.0809 18.6084 84.6619C15.5678 89.9245 17.8355 97.658 20.7486 101.912C22.2058 103.996 23.9086 106.321 26.1374 106.239C28.3178 106.151 29.1323 104.851 31.7636 104.851C34.3708 104.851 35.1356 106.239 37.4087 106.187C39.7488 106.151 41.2221 104.094 42.6284 101.992C44.3123 99.6058 44.9886 97.2529 45.0155 97.1322C44.9618 97.1134 40.472 95.399 40.4264 90.2182ZM36.1326 77.5038C37.3053 76.0376 38.1078 74.0428 37.885 72.0186C36.1876 72.0937 34.0648 73.1923 32.8424 74.6264C31.7609 75.89 30.7948 77.9613 31.0444 79.9091C32.9511 80.0513 34.9088 78.9472 36.1326 77.5038Z" fill="white"/>
<path d="M72.0089 105.94H68.9616L67.2924 100.696H61.4904L59.9003 105.94H56.9335L62.6832 88.088H66.2337L72.0089 105.94ZM66.7892 98.4964L65.2797 93.8348C65.12 93.3586 64.8194 92.2372 64.3793 90.4718H64.3256C64.1485 91.2311 63.8654 92.3525 63.4776 93.8348L61.9935 98.4964H66.7892ZM86.7663 99.3456C86.7663 101.535 86.1718 103.265 84.9816 104.536C83.9162 105.667 82.5919 106.231 81.0125 106.231C79.3071 106.231 78.0807 105.624 77.3359 104.406V111.16H74.4752V97.2985C74.4752 95.9235 74.4389 94.5136 74.3692 93.0675H76.8851L77.0448 95.1079H77.0984C78.0525 93.5706 79.5003 92.8019 81.4433 92.8019C82.9622 92.8019 84.2302 93.4016 85.2446 94.6022C86.2577 95.8055 86.7663 97.3857 86.7663 99.3456ZM83.8518 99.4502C83.8518 98.1973 83.5701 97.1644 83.0038 96.3501C82.3852 95.5036 81.5546 95.0797 80.5134 95.0797C79.8076 95.0797 79.1662 95.3158 78.5932 95.7813C78.0189 96.2508 77.6432 96.8639 77.4674 97.6231C77.389 97.9071 77.3444 98.1993 77.3346 98.4938V100.641C77.3346 101.576 77.6218 102.367 78.1961 103.013C78.7704 103.657 79.5164 103.98 80.4342 103.98C81.5117 103.98 82.3503 103.563 82.9501 102.735C83.5513 101.905 83.8518 100.81 83.8518 99.4502ZM101.576 99.3456C101.576 101.535 100.982 103.265 99.7913 104.536C98.7246 105.667 97.4016 106.231 95.8209 106.231C94.1154 106.231 92.889 105.624 92.1443 104.406V111.16H89.2835V97.2985C89.2835 95.9235 89.2473 94.5136 89.1775 93.0675H91.6934L91.8531 95.1079H91.9068C92.8595 93.5706 94.3073 92.8019 96.2516 92.8019C97.7692 92.8019 99.0372 93.4016 100.054 94.6022C101.066 95.8055 101.576 97.3857 101.576 99.3456ZM98.6602 99.4502C98.6602 98.1973 98.3771 97.1644 97.8108 96.3501C97.1922 95.5036 96.3643 95.0797 95.3231 95.0797C94.6173 95.0797 93.9759 95.3158 93.4002 95.7813C92.8259 96.2508 92.4516 96.8639 92.2758 97.6231C92.1886 97.9773 92.1416 98.2657 92.1416 98.4938V100.641C92.1416 101.576 92.4301 102.367 93.0017 103.013C93.576 103.656 94.3221 103.98 95.2426 103.98C96.3214 103.98 97.16 103.563 97.7585 102.735C98.3596 101.905 98.6602 100.81 98.6602 99.4502ZM118.134 100.933C118.134 102.452 117.603 103.688 116.547 104.642C115.385 105.683 113.762 106.205 111.683 106.205C109.761 106.205 108.221 105.834 107.059 105.092L107.72 102.709C108.975 103.452 110.353 103.822 111.853 103.822C112.932 103.822 113.77 103.578 114.369 103.094C114.969 102.608 115.272 101.959 115.272 101.149C115.272 100.423 115.021 99.8151 114.529 99.3201C114.033 98.8264 113.215 98.3663 112.065 97.9438C108.939 96.778 107.374 95.073 107.374 92.8301C107.374 91.3652 107.927 90.1659 109.03 89.2282C110.133 88.2919 111.595 87.8237 113.415 87.8237C115.04 87.8237 116.394 88.1068 117.469 88.6715L116.751 91.003C115.739 90.4557 114.597 90.182 113.32 90.182C112.311 90.182 111.519 90.4302 110.953 90.9239C110.476 91.3652 110.235 91.9031 110.235 92.5417C110.235 93.2459 110.51 93.8308 111.057 94.2896C111.532 94.7122 112.399 95.1723 113.652 95.6659C115.19 96.2857 116.32 97.0074 117.043 97.8364C117.772 98.6655 118.134 99.6997 118.134 100.933ZM127.617 95.2139H124.463V101.464C124.463 103.053 125.019 103.846 126.133 103.846C126.644 103.846 127.068 103.803 127.403 103.713L127.483 105.885C126.919 106.096 126.177 106.202 125.258 106.202C124.128 106.202 123.245 105.857 122.608 105.168C121.973 104.478 121.654 103.323 121.654 101.697V95.2085H119.775V93.0622H121.654V90.7052L124.463 89.8574V93.0622H127.617V95.2139ZM141.816 99.3979C141.816 101.377 141.25 103.001 140.12 104.271C138.938 105.579 137.365 106.231 135.405 106.231C133.513 106.231 132.008 105.605 130.887 104.353C129.765 103.099 129.204 101.519 129.204 99.6125C129.204 97.6178 129.784 95.9839 130.939 94.7135C132.097 93.4418 133.656 92.8059 135.617 92.8059C137.506 92.8059 139.024 93.4337 140.172 94.6867C141.27 95.902 141.816 97.4716 141.816 99.3979ZM138.85 99.4636C138.85 98.2845 138.596 97.273 138.084 96.4266C137.484 95.4044 136.626 94.8933 135.513 94.8933C134.367 94.8933 133.489 95.4044 132.89 96.4266C132.378 97.273 132.123 98.3019 132.123 99.5173C132.123 100.698 132.378 101.712 132.89 102.556C133.509 103.578 134.371 104.089 135.489 104.089C136.583 104.089 137.44 103.567 138.06 102.53C138.586 101.664 138.85 100.645 138.85 99.4636ZM151.119 95.5828C150.821 95.5291 150.519 95.5026 150.217 95.5036C149.211 95.5036 148.432 95.8819 147.885 96.6439C147.41 97.3146 147.171 98.1624 147.171 99.186V105.94H144.31V97.1214C144.313 95.7701 144.285 94.4189 144.227 93.0689H146.719L146.824 95.5318H146.903C147.206 94.6853 147.681 94.0025 148.333 93.4914C148.93 93.0448 149.655 92.803 150.401 92.8019C150.665 92.8019 150.904 92.8207 151.116 92.8542L151.119 95.5828ZM163.913 98.8949C163.92 99.3296 163.885 99.7641 163.808 100.192H155.226C155.258 101.464 155.674 102.438 156.471 103.108C157.195 103.707 158.13 104.007 159.278 104.007C160.549 104.007 161.708 103.806 162.751 103.4L163.199 105.384C161.981 105.915 160.542 106.179 158.883 106.179C156.886 106.179 155.319 105.591 154.178 104.419C153.04 103.245 152.47 101.668 152.47 99.6917C152.47 97.7519 153 96.1355 154.061 94.8463C155.172 93.47 156.674 92.7818 158.563 92.7818C160.419 92.7818 161.824 93.47 162.778 94.8463C163.533 95.9369 163.913 97.2891 163.913 98.8949ZM161.185 98.153C161.205 97.3039 161.017 96.5728 160.63 95.9544C160.134 95.1575 159.372 94.7605 158.351 94.7605C157.416 94.7605 156.654 95.1481 156.074 95.9262C155.598 96.5446 155.315 97.2878 155.227 98.1503L161.185 98.153Z" fill="white"/>
<path d="M60.6651 81.7763C59.8694 81.7763 59.1811 81.7374 58.6081 81.6717V73.0407C59.4095 72.9169 60.2193 72.8559 61.0301 72.8583C64.3109 72.8583 65.8218 74.472 65.8218 77.1027C65.8218 80.1371 64.0371 81.7763 60.6651 81.7763ZM61.1455 73.965C60.7027 73.965 60.3257 73.9918 60.013 74.0562V80.6173C60.1821 80.6441 60.5068 80.6562 60.963 80.6562C63.1126 80.6562 64.3364 79.4328 64.3364 77.1416C64.3364 75.0985 63.2294 73.965 61.1455 73.965ZM70.5302 81.8421C68.6812 81.8421 67.4829 80.4617 67.4829 78.5877C67.4829 76.6345 68.7067 75.2421 70.6349 75.2421C72.4571 75.2421 73.6822 76.5567 73.6822 78.4844C73.6822 80.4617 72.4195 81.8421 70.5302 81.8421ZM70.5839 76.2696C69.5681 76.2696 68.9173 77.2194 68.9173 78.5474C68.9173 79.85 69.5815 80.7997 70.5705 80.7997C71.5594 80.7997 72.2236 79.7843 72.2236 78.5206C72.2236 77.2328 71.5728 76.2696 70.5839 76.2696ZM84.2262 75.3722L82.247 81.6985H80.9575L80.1377 78.9512C79.9338 78.2792 79.7641 77.5973 79.6291 76.9082H79.6023C79.499 77.5977 79.303 78.2885 79.0951 78.9512L78.2229 81.6985H76.92L75.0575 75.3722H76.5027L77.2192 78.3797C77.3883 79.0961 77.5305 79.7722 77.6486 80.4107H77.6754C77.7787 79.8782 77.9478 79.2128 78.196 78.3932L79.0951 75.3735H80.241L81.1011 78.3288C81.3091 79.0451 81.4781 79.748 81.6096 80.4121H81.6472C81.7385 79.7615 81.882 79.0706 82.0766 78.3288L82.8455 75.3735L84.2262 75.3722ZM91.5123 81.6985H90.1061V78.0658C90.1061 76.9471 89.6767 76.3863 88.83 76.3863C87.9967 76.3863 87.4238 77.1027 87.4238 77.9357V81.6985H86.0175V77.1805C86.0175 76.6211 86.0041 76.0214 85.9652 75.3708H87.2024L87.2681 76.3474H87.307C87.6854 75.6713 88.4529 75.2421 89.313 75.2421C90.6414 75.2421 91.5136 76.2575 91.5136 77.9102L91.5123 81.6985ZM95.3902 81.6985H93.9826V72.4692H95.3902V81.6985ZM100.517 81.8421C98.6696 81.8421 97.47 80.4617 97.47 78.5877C97.47 76.6345 98.6937 75.2421 100.621 75.2421C102.444 75.2421 103.668 76.5567 103.668 78.4844C103.669 80.4617 102.405 81.8421 100.517 81.8421ZM100.57 76.2696C99.5538 76.2696 98.903 77.2194 98.903 78.5474C98.903 79.85 99.5686 80.7997 100.555 80.7997C101.545 80.7997 102.208 79.7843 102.208 78.5206C102.209 77.2328 101.56 76.2696 100.57 76.2696ZM109.212 81.6985L109.11 80.9701H109.073C108.643 81.5563 108.017 81.8421 107.222 81.8421C106.089 81.8421 105.283 81.0479 105.283 79.9801C105.283 78.4186 106.637 77.6111 108.981 77.6111V77.4944C108.981 76.6613 108.54 76.2441 107.668 76.2441C107.044 76.2441 106.496 76.4011 106.015 76.7136L105.729 75.7894C106.314 75.4245 107.044 75.2421 107.901 75.2421C109.554 75.2421 110.389 76.114 110.389 77.8593V80.1894C110.389 80.8279 110.417 81.3229 110.48 81.6999L109.212 81.6985ZM109.019 78.5474C107.457 78.5474 106.674 78.9257 106.674 79.8232C106.674 80.4872 107.077 80.8118 107.638 80.8118C108.354 80.8118 109.019 80.2658 109.019 79.524V78.5474ZM117.218 81.6985L117.152 80.683H117.113C116.709 81.4504 116.03 81.8421 115.081 81.8421C113.556 81.8421 112.426 80.5006 112.426 78.6132C112.426 76.6345 113.597 75.2407 115.197 75.2407C116.043 75.2407 116.643 75.5264 116.981 76.1006H117.01V72.4692H118.417V79.9935C118.417 80.6052 118.432 81.178 118.47 81.6985H117.218ZM117.01 77.976C117.01 77.0906 116.423 76.3353 115.528 76.3353C114.486 76.3353 113.848 77.2596 113.848 78.5608C113.848 79.8366 114.51 80.7099 115.5 80.7099C116.384 80.7099 117.01 79.9412 117.01 79.0304V77.976ZM127.342 81.8421C125.494 81.8421 124.296 80.4617 124.296 78.5877C124.296 76.6345 125.519 75.2421 127.446 75.2421C129.27 75.2421 130.494 76.5567 130.494 78.4844C130.495 80.4617 129.232 81.8421 127.342 81.8421ZM127.394 76.2696C126.38 76.2696 125.729 77.2194 125.729 78.5474C125.729 79.85 126.393 80.7997 127.381 80.7997C128.371 80.7997 129.034 79.7843 129.034 78.5206C129.036 77.2328 128.386 76.2696 127.394 76.2696ZM138.056 81.6985H136.649V78.0658C136.649 76.9471 136.219 76.3863 135.372 76.3863C134.539 76.3863 133.968 77.1027 133.968 77.9357V81.6985H132.56V77.1805C132.56 76.6211 132.547 76.0214 132.508 75.3708H133.745L133.811 76.3474H133.849C134.227 75.6713 134.995 75.2407 135.854 75.2407C137.183 75.2407 138.056 76.2562 138.056 77.9089V81.6985ZM147.517 76.4266H145.97V79.4985C145.97 80.2806 146.241 80.671 146.789 80.671C147.037 80.671 147.245 80.6441 147.413 80.6052L147.452 81.673C147.179 81.7777 146.814 81.83 146.361 81.83C145.252 81.83 144.589 81.2183 144.589 79.6166V76.4266H143.666V75.3722H144.589V74.2131L145.97 73.7959V75.3708H147.517V76.4266ZM154.962 81.6985H153.557V78.0927C153.557 76.9605 153.129 76.3877 152.281 76.3877C151.552 76.3877 150.873 76.8827 150.873 77.8847V81.6985H149.468V72.4692H150.873V76.2696H150.901C151.344 75.5801 151.986 75.2407 152.804 75.2407C154.143 75.2407 154.962 76.2817 154.962 77.9357V81.6985ZM162.589 78.8734H158.369C158.395 80.0713 159.188 80.7474 160.363 80.7474C160.986 80.7474 161.561 80.6428 162.068 80.4483L162.287 81.4249C161.688 81.6851 160.984 81.8152 160.164 81.8152C158.185 81.8152 157.013 80.565 157.013 78.6266C157.013 76.6868 158.213 75.2286 160.006 75.2286C161.623 75.2286 162.637 76.4266 162.637 78.2362C162.646 78.4498 162.63 78.6637 162.589 78.8734ZM161.299 77.8713C161.299 76.8947 160.807 76.2052 159.908 76.2052C159.1 76.2052 158.461 76.9082 158.37 77.8713H161.299Z" fill="white"/>
</svg>
