<svg width="22" height="636" viewBox="0 0 22 636" fill="none" xmlns="http://www.w3.org/2000/svg">
<path d="M0.333333 11C0.333333 16.891 5.10896 21.6667 11 21.6667C16.891 21.6667 21.6667 16.891 21.6667 11C21.6667 5.10896 16.891 0.333333 11 0.333333C5.10896 0.333333 0.333333 5.10896 0.333333 11ZM0.333333 625C0.333333 630.891 5.10896 635.667 11 635.667C16.891 635.667 21.6667 630.891 21.6667 625C21.6667 619.109 16.891 614.333 11 614.333C5.10896 614.333 0.333333 619.109 0.333333 625ZM9 11V14.4886H13V11H9ZM9 21.4659V28.4432H13V21.4659H9ZM9 35.4205V42.3977H13V35.4205H9ZM9 49.375V56.3523H13V49.375H9ZM9 63.3295V70.3068H13V63.3295H9ZM9 77.2841V84.2614H13V77.2841H9ZM9 91.2386V98.2159H13V91.2386H9ZM9 105.193V112.17H13V105.193H9ZM9 119.148V126.125H13V119.148H9ZM9 133.102V140.08H13V133.102H9ZM9 147.057V154.034H13V147.057H9ZM9 161.011V167.989H13V161.011H9ZM9 174.966V181.943H13V174.966H9ZM9 188.921V195.898H13V188.921H9ZM9 202.875V209.852H13V202.875H9ZM9 216.83V223.807H13V216.83H9ZM9 230.784V237.761H13V230.784H9ZM9 244.739V251.716H13V244.739H9ZM9 258.693V265.671H13V258.693H9ZM9 272.648V279.625H13V272.648H9ZM9 286.602V293.58H13V286.602H9ZM9 300.557V307.534H13V300.557H9ZM9 314.511V321.489H13V314.511H9ZM9 328.466V335.443H13V328.466H9ZM9 342.421V349.398H13V342.421H9ZM9 356.375V363.352H13V356.375H9ZM9 370.33V377.307H13V370.33H9ZM9 384.284V391.261H13V384.284H9ZM9 398.239V405.216H13V398.239H9ZM9 412.193V419.17H13V412.193H9ZM9 426.148V433.125H13V426.148H9ZM9 440.102V447.079H13V440.102H9ZM9 454.057V461.034H13V454.057H9ZM9 468.011V474.989H13V468.011H9ZM9 481.966V488.943H13V481.966H9ZM9 495.92V502.898H13V495.92H9ZM9 509.875V516.852H13V509.875H9ZM9 523.829V530.807H13V523.829H9ZM9 537.784V544.761H13V537.784H9ZM9 551.739V558.716H13V551.739H9ZM9 565.693V572.67H13V565.693H9ZM9 579.648V586.625H13V579.648H9ZM9 593.602V600.58H13V593.602H9ZM9 607.557V614.534H13V607.557H9ZM9 621.512V625H13V621.512H9Z" fill="#D2D7DA"/>
</svg>
