<svg width="181" height="181" viewBox="0 0 181 181" fill="none" xmlns="http://www.w3.org/2000/svg">
<g clip-path="url(#clip0_102_653)">
<path d="M181 110.733C181 114.689 177.418 117.896 173.001 117.896H8.00111C3.58298 117.897 0 114.689 0 110.733V72.0585C0 68.1036 3.58298 64.8962 8.00111 64.8962H173C177.418 64.8962 181 68.1036 181 72.0585L181 110.733Z" fill="black"/>
<mask id="mask0_102_653" style="mask-type:luminance" maskUnits="userSpaceOnUse" x="13" y="72" width="35" height="40">
<path d="M39.2249 86.9579L31.0635 82.246C31.0635 82.246 16.1951 73.6607 15.321 73.156C14.4469 72.6514 13.576 72.9571 13.576 74.0117V111.045C13.576 111.836 14.1985 112.176 14.9579 111.738C15.717 111.3 31.0635 102.439 31.0635 102.439L39.2246 97.7273C39.2246 97.7273 46.1492 93.7296 47.0696 93.1984C47.99 92.6666 47.9016 91.9376 47.1248 91.5193C46.3484 91.1007 39.2249 86.9579 39.2249 86.9579Z" fill="white"/>
</mask>
<g mask="url(#mask0_102_653)">
<path d="M13.5764 72.2949V112.39L33.7947 92.3426L13.5764 72.2949Z" fill="url(#paint0_linear_102_653)"/>
</g>
<mask id="mask1_102_653" style="mask-type:luminance" maskUnits="userSpaceOnUse" x="13" y="72" width="35" height="40">
<path d="M39.2249 86.9579L31.0635 82.246C31.0635 82.246 16.1951 73.6607 15.321 73.156C14.4469 72.6514 13.576 72.9571 13.576 74.0117V111.045C13.576 111.836 14.1985 112.176 14.9579 111.738C15.717 111.3 31.0635 102.439 31.0635 102.439L39.2246 97.7273C39.2246 97.7273 46.1492 93.7296 47.0696 93.1984C47.99 92.6666 47.9016 91.9376 47.1248 91.5193C46.3484 91.1007 39.2249 86.9579 39.2249 86.9579Z" fill="white"/>
</mask>
<g mask="url(#mask1_102_653)">
<path d="M39.2249 86.9578L31.0635 82.2459L13.5764 72.1492V72.295L33.7947 92.3427L39.2249 86.9578Z" fill="url(#paint1_linear_102_653)"/>
</g>
<mask id="mask2_102_653" style="mask-type:luminance" maskUnits="userSpaceOnUse" x="13" y="72" width="35" height="40">
<path d="M39.2249 86.9579L31.0635 82.246C31.0635 82.246 16.1951 73.6607 15.321 73.156C14.4469 72.6514 13.576 72.9571 13.576 74.0117V111.045C13.576 111.836 14.1985 112.176 14.9579 111.738C15.717 111.3 31.0635 102.439 31.0635 102.439L39.2246 97.7273C39.2246 97.7273 46.1492 93.7296 47.0696 93.1984C47.99 92.6666 47.9016 91.9376 47.1248 91.5193C46.3484 91.1007 39.2249 86.9579 39.2249 86.9579Z" fill="white"/>
</mask>
<g mask="url(#mask2_102_653)">
<path d="M13.5764 112.39V112.536L31.0635 102.439L39.2246 97.727L33.7947 92.3428L13.5764 112.39Z" fill="url(#paint2_linear_102_653)"/>
</g>
<mask id="mask3_102_653" style="mask-type:luminance" maskUnits="userSpaceOnUse" x="13" y="72" width="35" height="40">
<path d="M39.2249 86.9579L31.0635 82.246C31.0635 82.246 16.1951 73.6607 15.321 73.156C14.4469 72.6514 13.576 72.9571 13.576 74.0117V111.045C13.576 111.836 14.1985 112.176 14.9579 111.738C15.717 111.3 31.0635 102.439 31.0635 102.439L39.2246 97.7273C39.2246 97.7273 46.1492 93.7296 47.0696 93.1984C47.99 92.6666 47.9016 91.9376 47.1248 91.5193C46.3484 91.1007 39.2249 86.9579 39.2249 86.9579Z" fill="white"/>
</mask>
<g mask="url(#mask3_102_653)">
<path d="M39.2249 86.9578L33.7947 92.3427L39.2245 97.7269L48.5516 92.3423L39.2249 86.9578Z" fill="url(#paint3_linear_102_653)"/>
</g>
<path d="M140.863 100.18C140.103 100.18 139.41 100.04 138.783 99.7603C138.156 99.48 137.628 99.049 137.203 98.4679H137.075C137.16 99.1488 137.203 99.7943 137.203 100.404V105.202H135.437V88.3071H136.874L137.118 89.9031H137.203C137.657 89.2643 138.186 88.8039 138.788 88.5201C139.391 88.2363 140.083 88.0944 140.862 88.0944C142.409 88.0944 143.602 88.6231 144.443 89.6798C145.283 90.7364 145.703 92.2192 145.703 94.1266C145.703 96.0417 145.276 97.5291 144.422 98.5904C143.567 99.6505 142.381 100.18 140.863 100.18ZM140.607 89.5945C139.416 89.5945 138.554 89.9247 138.022 90.584C137.49 91.2436 137.217 92.2935 137.203 93.7334V94.1266C137.203 95.7654 137.476 96.9374 138.022 97.6434C138.569 98.3494 139.445 98.7015 140.65 98.7015C141.658 98.7015 142.447 98.2942 143.018 97.4785C143.588 96.6632 143.874 95.5389 143.874 94.1054C143.874 92.652 143.588 91.5359 143.018 90.7594C142.447 89.9823 141.643 89.5945 140.607 89.5945ZM149.793 99.9673H148.027V83.413H149.793V99.9673ZM159.947 99.9673L159.595 98.3076H159.51C158.928 99.0387 158.349 99.5338 157.771 99.7918C157.193 100.051 156.471 100.18 155.606 100.18C154.45 100.18 153.544 99.8824 152.887 99.2868C152.231 98.6912 151.903 97.844 151.903 96.7442C151.903 94.3899 153.787 93.1555 157.553 93.0416L159.532 92.9775V92.2542C159.532 91.3391 159.335 90.6632 158.941 90.2276C158.548 89.7909 157.917 89.5729 157.053 89.5729C156.081 89.5729 154.981 89.8709 153.755 90.4664L153.212 89.1153C153.787 88.8032 154.416 88.5587 155.101 88.3814C155.785 88.2041 156.471 88.1153 157.159 88.1153C158.549 88.1153 159.58 88.4236 160.25 89.0407C160.92 89.6579 161.255 90.6473 161.255 92.0094V99.967H159.947L159.947 99.9673ZM155.957 98.7231C157.056 98.7231 157.919 98.4215 158.547 97.8189C159.174 97.2162 159.489 96.3719 159.489 95.2862V94.2331L157.722 94.307C156.318 94.3577 155.306 94.5749 154.685 94.9624C154.064 95.3489 153.754 95.9501 153.754 96.7658C153.754 97.4038 153.947 97.89 154.334 98.2226C154.721 98.5564 155.261 98.7231 155.957 98.7231ZM162.28 88.3071H164.174L166.727 94.9567C167.287 96.4749 167.635 97.5705 167.77 98.2446H167.855C167.948 97.8822 168.141 97.264 168.435 96.3871C168.729 95.5109 169.693 92.8183 171.323 88.3071H173.218L168.206 101.585C167.71 102.897 167.13 103.828 166.466 104.379C165.803 104.928 164.989 105.202 164.026 105.202C163.486 105.202 162.954 105.142 162.429 105.022V103.607C162.819 103.692 163.256 103.735 163.738 103.735C164.951 103.735 165.816 103.054 166.334 101.692L166.983 100.032L162.28 88.3071ZM108.147 89.3907C108.708 89.8546 109.879 90.8291 109.879 92.6838C109.879 94.4875 108.854 95.3428 107.83 96.1465C107.513 96.4632 107.147 96.8057 107.147 97.3429C107.147 97.8783 107.512 98.1714 107.781 98.3911L108.66 99.0727C109.733 99.9754 110.707 100.805 110.707 102.489C110.707 104.781 108.488 107.097 104.294 107.097C100.757 107.097 99.0503 105.415 99.0503 103.609C99.0503 102.731 99.4873 101.488 100.928 100.634C102.439 99.7068 104.489 99.5861 105.586 99.5111C105.244 99.0727 104.855 98.6091 104.855 97.8543C104.855 97.4403 104.977 97.1961 105.098 96.902C104.829 96.9268 104.561 96.9512 104.317 96.9512C101.733 96.9512 100.269 95.0244 100.269 93.123C100.269 92.0008 100.782 90.7563 101.83 89.8549C103.22 88.7088 104.879 88.5131 106.197 88.5131H111.22L109.659 89.391H108.147L108.147 89.3907ZM106.415 100.22C106.22 100.194 106.098 100.194 105.855 100.194C105.636 100.194 104.317 100.244 103.294 100.587C102.757 100.78 101.196 101.365 101.196 103.098C101.196 104.829 102.88 106.074 105.489 106.074C107.829 106.074 109.074 104.95 109.074 103.439C109.075 102.193 108.269 101.537 106.415 100.22ZM107.123 95.5852C107.683 95.0236 107.731 94.2441 107.731 93.8045C107.731 92.049 106.683 89.3174 104.659 89.3174C104.024 89.3174 103.342 89.6341 102.952 90.1225C102.538 90.6345 102.415 91.2924 102.415 91.9272C102.415 93.5611 103.366 96.2686 105.464 96.2686C106.074 96.2686 106.731 95.9759 107.123 95.5852ZM92.7931 99.8296C88.922 99.8296 86.8523 96.81 86.8523 94.0823C86.8523 90.8921 89.4571 88.1663 93.1597 88.1663C96.7374 88.1663 98.9778 90.9654 98.9778 93.9124C98.9781 96.7845 96.7632 99.8296 92.7931 99.8296ZM95.8364 97.8575C96.4217 97.0775 96.5679 96.104 96.5679 95.1535C96.5679 93.0101 95.5452 88.92 92.5255 88.92C91.7223 88.92 90.919 89.2371 90.3347 89.7495C89.3849 90.6006 89.2137 91.6725 89.2137 92.7207C89.2137 95.1295 90.4069 99.0975 93.354 99.0975C94.3034 99.0975 95.2776 98.6356 95.8364 97.8575ZM79.5953 99.8296C75.7235 99.8296 73.6534 96.81 73.6534 94.0823C73.6534 90.8921 76.2593 88.1663 79.9609 88.1663C83.5396 88.1663 85.7796 90.9654 85.7796 93.9124C85.78 96.7845 83.5647 99.8296 79.5953 99.8296ZM82.6393 97.8575C83.2236 97.0775 83.3701 96.104 83.3701 95.1535C83.3701 93.0101 82.3467 88.92 79.327 88.92C78.5241 88.92 77.7201 89.2371 77.1362 89.7495C76.1864 90.6006 76.0162 91.6725 76.0162 92.7207C76.0162 95.1295 77.2087 99.0975 80.1562 99.0975C81.106 99.0975 82.0795 98.6356 82.6393 97.8575ZM71.7934 99.4478L68.2922 100.256C66.8717 100.477 65.5992 100.671 64.2534 100.671C57.4958 100.671 54.9263 95.701 54.9263 91.8083C54.9263 87.0597 58.5734 82.6543 64.8168 82.6543C66.1392 82.6543 67.4111 82.8496 68.5615 83.1681C70.3974 83.6823 71.2542 84.3182 71.7931 84.6859L69.7604 86.6198L68.904 86.8148L69.5159 85.8353C68.6839 85.0281 67.1647 83.5351 64.2771 83.5351C60.4089 83.5351 57.4951 86.474 57.4951 90.7577C57.4951 95.3588 60.8251 99.692 66.1608 99.692C67.7292 99.692 68.5353 99.3742 69.2703 99.0798V95.1394L65.5744 95.3351L67.5321 94.2812H72.7224L72.0864 94.8931C71.9138 95.0407 71.8901 95.0902 71.8412 95.2841C71.8158 95.5049 71.7928 96.2155 71.7928 96.4601V99.4478H71.7934V99.4478Z" fill="#F9F9F9"/>
<path d="M115.885 98.7429C115.077 98.6693 114.907 98.5232 114.907 97.5673V83.7117C114.912 83.659 114.916 83.6049 114.921 83.5539C115.019 82.6975 115.264 82.5506 116.024 82.1094H112.522L110.685 82.9909H112.557V83.0018L112.555 82.993V98.1066C112.555 98.5954 112.459 98.6697 111.895 99.4032H116.229L117.134 98.8661C116.719 98.8155 116.302 98.7918 115.885 98.7429ZM125.846 98.968C125.58 99.1141 125.312 99.2851 125.046 99.4057C124.242 99.7702 123.416 99.8679 122.685 99.8679C121.909 99.8679 120.693 99.8176 119.452 98.9191C117.727 97.7025 116.973 95.6119 116.973 93.789C116.973 90.0213 120.036 88.1737 122.54 88.1737C123.416 88.1737 124.316 88.3921 125.046 88.855C126.26 89.6558 126.576 90.7011 126.745 91.2606L121.033 93.5711L119.161 93.7168C119.768 96.8044 121.859 98.6021 124.169 98.6021C125.409 98.6021 126.309 98.1654 127.135 97.7528L125.846 98.968ZM123.562 91.722C124.023 91.5525 124.266 91.406 124.266 91.066C124.266 90.0942 123.173 88.9753 121.859 88.9753C120.885 88.9753 119.063 89.7294 119.063 92.3544C119.063 92.7678 119.112 93.2052 119.137 93.6443L123.562 91.722ZM128.193 88.3401V89.9442H127.998V88.3401H127.467V88.1737H128.723V88.3401H128.193ZM130.38 89.9442V88.3252H130.371L129.877 89.9442H129.725L129.226 88.3252H129.22V89.9442H129.043V88.1737H129.346L129.797 89.6048H129.803L130.248 88.1737H130.555V89.9442H130.38Z" fill="#F9F9F9"/>
<path d="M59.7886 77.8875H58.5719C58.5719 77.7201 58.4566 77.2463 58.2259 76.4656H56.4695C56.2314 77.2335 56.1122 77.7073 56.1122 77.8875H54.9681C54.9681 77.7887 55.2639 76.9776 55.8556 75.4546C56.4472 73.9315 56.7431 73.0925 56.7431 72.9382H58.1802C58.1802 73.0826 58.4481 73.9092 58.9842 75.4185C59.5203 76.9278 59.7886 77.7505 59.7886 77.8875ZM58.0323 75.7395C57.5988 74.4319 57.3822 73.7249 57.3822 73.6183H57.3213C57.3213 73.7171 57.097 74.4241 56.6486 75.7395H58.0323ZM64.6904 77.8875H63.7516C63.7516 77.7835 63.4031 77.2349 62.7063 76.2416C61.9766 75.1949 61.5608 74.4793 61.4596 74.094H61.3987C61.4621 74.6488 61.4939 75.1506 61.4939 75.5994C61.4939 76.2254 61.5116 76.9883 61.547 77.8879H60.6117C60.6496 77.1023 60.6687 76.2395 60.6687 75.2993C60.6687 74.3743 60.6496 73.5872 60.6117 72.9386H61.7406C61.7406 73.0731 62.0534 73.6092 62.6794 74.5466C63.3458 75.5424 63.7286 76.2179 63.8274 76.5729H63.8844C63.8235 76.0077 63.7931 75.501 63.7931 75.0523C63.7931 74.3658 63.7753 73.6608 63.74 72.9386H64.6905C64.6547 73.5671 64.6374 74.3541 64.6374 75.2993C64.637 76.2515 64.6547 77.1143 64.6904 77.8875ZM70.1999 75.2416C70.1999 75.9613 69.9692 76.5899 69.5081 77.127C69.0466 77.6646 68.4004 77.9328 67.5692 77.9328C67.1941 77.9328 66.6771 77.9176 66.0182 77.8871C66.0511 77.1217 66.0677 76.2586 66.0677 75.2986C66.0677 74.3764 66.0511 73.5894 66.0182 72.9378H66.6835C66.7925 72.9378 66.9545 72.9339 67.1701 72.9265C67.3852 72.9191 67.526 72.9152 67.5919 72.9152C68.5067 72.9152 69.1698 73.1434 69.5821 73.5996C69.994 74.0557 70.1999 74.6028 70.1999 75.2416ZM69.1623 75.405C69.1623 74.9185 69.0204 74.5087 68.7366 74.175C68.4528 73.842 68.0193 73.6753 67.4365 73.6753C67.3275 73.6753 67.1782 73.6866 66.9878 73.7096C67.0129 74.2167 67.0256 74.7461 67.0256 75.2985C67.0256 75.9044 67.0384 76.5049 67.0635 77.1005C67.2261 77.1332 67.3916 77.1498 67.5575 77.15C68.1024 77.15 68.5059 76.9805 68.7681 76.6422C69.0304 76.3039 69.1623 75.8916 69.1623 75.405ZM75.2805 77.8875H74.1552C73.8611 76.9904 73.6357 76.4366 73.4786 76.2264C73.3215 76.0158 73.0681 75.9107 72.7185 75.9107C72.5713 75.9107 72.4307 75.9122 72.2967 75.9146C72.2967 76.5662 72.308 77.2236 72.331 77.8875H71.2743C71.3072 77.1221 71.3239 76.259 71.3239 75.2989C71.3239 74.3767 71.3072 73.5897 71.2743 72.9382H71.9318C72.0079 72.9382 72.1668 72.9343 72.4088 72.9269C72.6509 72.9194 72.8745 72.9155 73.0798 72.9155C74.243 72.9155 74.8247 73.3133 74.8247 74.1092C74.8247 74.7401 74.4928 75.1796 73.8289 75.4284V75.4854C74.0848 75.5562 74.3091 75.7561 74.5017 76.0838C74.6938 76.4118 74.9535 77.0131 75.2805 77.8875ZM73.8551 74.3901C73.8551 73.8858 73.5306 73.6336 72.8819 73.6336C72.6438 73.6336 72.4332 73.6513 72.251 73.6866C72.2789 74.0794 72.2927 74.5915 72.2927 75.2225C72.4322 75.2278 72.55 75.2299 72.6463 75.2299C73.452 75.2302 73.8551 74.9503 73.8551 74.3901ZM80.7294 75.3215C80.7294 76.0994 80.4913 76.7444 80.0146 77.2565C79.538 77.7682 78.9488 78.0244 78.247 78.0244C77.5779 78.0244 77.0177 77.7894 76.5668 77.3191C76.1156 76.8492 75.8902 76.2515 75.8902 75.5271C75.8902 74.7493 76.1284 74.1042 76.6051 73.5921C77.0814 73.0804 77.6706 72.8242 78.3726 72.8242C79.0418 72.8242 79.6017 73.0585 80.0529 73.5274C80.5041 73.9963 80.7294 74.594 80.7294 75.3215ZM79.6806 75.4316C79.6806 74.9018 79.545 74.4722 79.274 74.1428C79.0026 73.8133 78.6681 73.6488 78.2704 73.6488C77.9002 73.6488 77.586 73.8147 77.3277 74.1467C77.0693 74.4786 76.9395 74.898 76.9395 75.4051C76.9395 75.932 77.0757 76.3609 77.3482 76.6918C77.6206 77.0227 77.9544 77.1879 78.35 77.1879C78.7198 77.1879 79.0344 77.0212 79.2927 76.6879C79.5511 76.3549 79.6806 75.9358 79.6806 75.4316ZM82.8789 77.8875H81.8031C81.836 77.1019 81.8527 76.2391 81.8527 75.2989C81.8527 74.3739 81.8361 73.5868 81.8031 72.9382H82.8789C82.846 73.5769 82.8294 74.3636 82.8294 75.2989C82.8294 76.254 82.846 77.1171 82.8789 77.8875ZM88.3887 75.2416C88.3887 75.9613 88.158 76.5899 87.6969 77.127C87.2355 77.6646 86.5893 77.9328 85.758 77.9328C85.3829 77.9328 84.8659 77.9176 84.207 77.8871C84.2399 77.1217 84.2565 76.2586 84.2565 75.2986C84.2565 74.3764 84.2399 73.5894 84.207 72.9378H84.8723C84.9813 72.9378 85.1434 72.9339 85.3589 72.9265C85.574 72.9191 85.7149 72.9152 85.7807 72.9152C86.6955 72.9152 87.3586 73.1434 87.7709 73.5996C88.1828 74.0557 88.3887 74.6028 88.3887 75.2416ZM87.3512 75.405C87.3512 74.9185 87.2093 74.5087 86.9254 74.175C86.6416 73.842 86.2082 73.6753 85.6253 73.6753C85.5163 73.6753 85.367 73.6866 85.1766 73.7096C85.2017 74.2167 85.2144 74.7461 85.2144 75.2985C85.2144 75.9044 85.2272 76.5049 85.2523 77.1005C85.4149 77.1332 85.5804 77.1498 85.7463 77.15C86.2912 77.15 86.6947 76.9805 86.9569 76.6422C87.2192 76.3039 87.3512 75.8916 87.3512 75.405ZM95.6984 77.8875H94.4818C94.4818 77.7201 94.3664 77.2463 94.1353 76.4656H92.379C92.1409 77.2335 92.0216 77.7073 92.0216 77.8875H90.8779C90.8779 77.7887 91.1737 76.9776 91.7654 75.4546C92.3571 73.9315 92.6529 73.0925 92.6529 72.9382H94.09C94.09 73.0826 94.3583 73.9092 94.894 75.4185C95.4298 76.9278 95.6984 77.7505 95.6984 77.8875ZM93.9421 75.7395C93.5086 74.4319 93.2916 73.7249 93.2916 73.6183H93.2308C93.2308 73.7171 93.0068 74.4241 92.5584 75.7395H93.9421ZM100.132 74.2341C100.132 74.8399 99.9073 75.2872 99.4576 75.576C99.0078 75.8647 98.4561 76.0094 97.8021 76.0094C97.6829 76.0094 97.5983 76.007 97.5473 76.002C97.5473 76.4787 97.5611 77.1068 97.5891 77.8875H96.5207C96.5536 77.1553 96.5703 76.2922 96.5703 75.2989C96.5703 74.3866 96.5537 73.5996 96.5207 72.9382H97.1821C97.2759 72.9382 97.4556 72.9343 97.7218 72.9269C97.9879 72.9194 98.2183 72.9155 98.4136 72.9155C98.8949 72.9155 99.3018 73.0245 99.6338 73.2425C99.9657 73.4605 100.132 73.7907 100.132 74.2341ZM99.1518 74.4432C99.1518 73.9011 98.7919 73.6297 98.0722 73.6297C97.8921 73.6297 97.702 73.6487 97.5021 73.6866C97.53 74.1658 97.5438 74.7079 97.5438 75.3138C97.6072 75.3191 97.6808 75.3212 97.7643 75.3212C98.6893 75.3215 99.1518 75.0289 99.1518 74.4432ZM104.692 74.2341C104.692 74.8399 104.467 75.2872 104.017 75.576C103.568 75.8647 103.015 76.0094 102.362 76.0094C102.242 76.0094 102.158 76.007 102.107 76.002C102.107 76.4787 102.121 77.1068 102.148 77.8875H101.08C101.113 77.1553 101.13 76.2922 101.13 75.2989C101.13 74.3866 101.113 73.5996 101.08 72.9382H101.742C101.835 72.9382 102.015 72.9343 102.281 72.9269C102.547 72.9194 102.778 72.9155 102.973 72.9155C103.454 72.9155 103.861 73.0245 104.193 73.2425C104.525 73.4605 104.692 73.7907 104.692 74.2341ZM103.711 74.4432C103.711 73.9011 103.351 73.6297 102.632 73.6297C102.451 73.6297 102.261 73.6487 102.061 73.6866C102.089 74.1658 102.103 74.7079 102.103 75.3138C102.167 75.3191 102.24 75.3212 102.324 75.3212C103.249 75.3215 103.711 75.0289 103.711 74.4432ZM112.146 75.3215C112.146 76.0994 111.908 76.7444 111.431 77.2565C110.955 77.7686 110.365 78.0244 109.664 78.0244C108.995 78.0244 108.434 77.7894 107.984 77.3191C107.533 76.8492 107.307 76.2515 107.307 75.5271C107.307 74.7493 107.545 74.1042 108.022 73.5921C108.498 73.0801 109.088 72.8242 109.789 72.8242C110.459 72.8242 111.019 73.0585 111.47 73.5274C111.92 73.9963 112.146 74.594 112.146 75.3215ZM111.097 75.4316C111.097 74.9018 110.961 74.4722 110.69 74.1428C110.419 73.8133 110.084 73.6488 109.687 73.6488C109.317 73.6488 109.002 73.8147 108.744 74.1467C108.486 74.4786 108.356 74.898 108.356 75.4051C108.356 75.932 108.492 76.3609 108.765 76.6918C109.037 77.0227 109.371 77.1879 109.766 77.1879C110.136 77.1879 110.451 77.0212 110.709 76.6879C110.968 76.3549 111.097 75.9358 111.097 75.4316ZM117.299 77.8875H116.36C116.36 77.7835 116.011 77.2349 115.314 76.2416C114.585 75.1949 114.169 74.4793 114.068 74.094H114.007C114.07 74.6488 114.102 75.1506 114.102 75.5994C114.102 76.2254 114.12 76.9883 114.155 77.8879H113.22C113.258 77.1023 113.277 76.2395 113.277 75.2993C113.277 74.3743 113.258 73.5872 113.22 72.9386H114.349C114.349 73.0731 114.662 73.6092 115.288 74.5466C115.954 75.5424 116.337 76.2179 116.436 76.5729H116.492C116.432 76.0077 116.401 75.501 116.401 75.0523C116.401 74.3658 116.383 73.6608 116.348 72.9386H117.299C117.263 73.5671 117.246 74.3541 117.246 75.2993C117.245 76.2515 117.263 77.1143 117.299 77.8875Z" fill="#F9F9FA"/>
</g>
<defs>
<linearGradient id="paint0_linear_102_653" x1="23.6855" y1="72.295" x2="23.6855" y2="112.39" gradientUnits="userSpaceOnUse">
<stop stop-color="#257CB0"/>
<stop offset="0.286" stop-color="#4A93B5"/>
<stop offset="0.767" stop-color="#78BCBB"/>
<stop offset="1" stop-color="#89CFBD"/>
</linearGradient>
<linearGradient id="paint1_linear_102_653" x1="13.5767" y1="82.2456" x2="39.2252" y2="82.2456" gradientUnits="userSpaceOnUse">
<stop stop-color="#52C1AD"/>
<stop offset="1" stop-color="#DEE89A"/>
</linearGradient>
<linearGradient id="paint2_linear_102_653" x1="26.4005" y1="92.3428" x2="26.4005" y2="112.536" gradientUnits="userSpaceOnUse">
<stop stop-color="#EC413D"/>
<stop offset="0.167" stop-color="#DA4452"/>
<stop offset="0.575" stop-color="#B0487A"/>
<stop offset="0.862" stop-color="#954A92"/>
<stop offset="1" stop-color="#8A4A9D"/>
</linearGradient>
<linearGradient id="paint3_linear_102_653" x1="41.1733" y1="86.9578" x2="41.1733" y2="97.7266" gradientUnits="userSpaceOnUse">
<stop stop-color="#F58879"/>
<stop offset="0.119" stop-color="#F69079"/>
<stop offset="0.713" stop-color="#FCB877"/>
<stop offset="1" stop-color="#FEC874"/>
</linearGradient>
<clipPath id="clip0_102_653">
<rect width="181" height="181" fill="white"/>
</clipPath>
</defs>
</svg>
